<svg xmlns="http://www.w3.org/2000/svg" viewBox="0 0 900 560">
  <defs>
    <linearGradient id="bg" x1="0" x2="1">
      <stop offset="0%" stop-color="#101e47"/>
      <stop offset="100%" stop-color="#142a61"/>
    </linearGradient>
    <linearGradient id="card" x1="0" x2="1">
      <stop offset="0%" stop-color="#31dff6"/>
      <stop offset="100%" stop-color="#6987ff"/>
    </linearGradient>
  </defs>
  <rect width="900" height="560" rx="24" fill="url(#bg)"/>
  <g opacity="0.35" stroke="#65dfff" stroke-width="2">
    <path d="M70 80h120v70"/>
    <path d="M830 100h-120v70"/>
    <path d="M90 500h140v-90"/>
    <path d="M810 480h-150v-80"/>
  </g>
  <rect x="110" y="210" width="330" height="210" rx="22" fill="url(#card)"/>
  <rect x="130" y="260" width="290" height="18" rx="9" fill="#1c2d64" opacity="0.55"/>
  <rect x="130" y="300" width="120" height="44" rx="8" fill="#f5e88e" opacity="0.95"/>
  <circle cx="390" cy="330" r="16" fill="#fff" opacity="0.58"/>
  <g transform="translate(410,118)">
    <ellipse cx="95" cy="56" rx="66" ry="50" fill="#243a7d"/>
    <rect x="42" y="98" width="106" height="120" rx="18" fill="#1f326c"/>
    <circle cx="70" cy="52" r="8" fill="#f6f6f6"/>
    <circle cx="118" cy="52" r="8" fill="#f6f6f6"/>
    <rect x="62" y="80" width="62" height="10" rx="5" fill="#ff9f4d"/>
    <rect x="24" y="128" width="50" height="90" rx="10" fill="#1b2a57" transform="rotate(-12 24 128)"/>
    <rect x="124" y="130" width="56" height="94" rx="10" fill="#1b2a57" transform="rotate(12 124 130)"/>
  </g>
  <g transform="translate(650,170)">
    <rect x="0" y="0" width="190" height="120" rx="18" fill="#f3f7ff"/>
    <text x="20" y="34" fill="#567" font-size="18" font-family="Arial">Transaction</text>
    <text x="20" y="72" fill="#12192a" font-size="44" font-family="Arial" font-weight="700">$256.89</text>
    <rect x="20" y="85" width="108" height="24" rx="12" fill="#ffe48e"/>
    <text x="35" y="102" fill="#765f12" font-size="14" font-family="Arial" font-weight="700">FLAGGED</text>
  </g>
  <g transform="translate(640,340)">
    <rect x="0" y="0" width="160" height="78" rx="14" fill="#f7f8ff"/>
    <text x="18" y="30" fill="#23324f" font-size="30" font-family="Arial" font-weight="700">$84.60</text>
    <rect x="18" y="44" width="92" height="20" rx="10" fill="#ffd4df"/>
    <text x="34" y="58" fill="#8f2f52" font-size="12" font-family="Arial" font-weight="700">DECLINED</text>
  </g>
</svg>
